#N canvas 0 1 1518 755 12;
#X obj 149 114 moses 101;
#X obj 13 81 midirealtimein;
#X obj 29 131 sel 248 250;
#X msg 54 160 0;
#X obj 22 163 f;
#X obj 95 159 + 1;
#X obj 24 187 mod 24;
#X obj 83 187 sel 0;
#X obj 103 218 bng 19 250 50 0 empty empty empty 0 -10 0 12 #fcfcfc #000000 #000000;
#X obj 145 148 bng 19 250 50 0 empty empty empty 0 -10 0 12 #fcfcfc #000000 #000000;
#X msg 179 148 1;
#X obj 227 152 f 0;
#X obj 143 183 spigot;
#X obj 144 211 t b b;
#X msg 213 189 0, f 2;
#X msg 194 216 60;
#X obj 152 264 makenote 60 127 100;
#X floatatom 1455 72 5 0 0 0 - - - 0;
#X obj 1065 30 route bateria_c6_1 bateria_c6_2 bateria_c6_3 bateria_c6_4 bateria_c6_5, f 71;
#X obj 1455 157 vsl 53 162 0 127 0 0 empty empty Batería\ 5 0 180 0 12 #0aff00 #000000 #000000 0 1;
#N canvas 350 371 1503 862 logica_bateria 0;
#X obj 59 108 t f f f f f;
#X obj 127 318 expr $f1 > 0 && $f1 < 15;
#X obj 126 346 metro 250;
#X obj 129 372 b;
#X obj 130 402 tgl 19 0 empty empty empty 0 -10 0 12 #fcfcfc #000000 #000000 0 1;
#X obj 309 183 expr if($f1 > 0 && $f1 < 15 \, $f2 \, 1);
#X obj 56 64 t f f;
#X obj 422 290 expr int(if($f1>100 \, 0 \, if($f1==0 \, 0 \, if($f1>50 \, (100-$f1)*5.1 \, 255))) * $f2);
#X obj 424 355 expr int(if($f1>100 \, 0 \, if($f1==0 \, 0 \, if($f1>50 \, 255 \, $f1*5.1))) * $f2);
#X obj 445 421 expr int(if($f1>100 \, 255 \, 0) * $f2);
#X obj 142 482 expr -1 - ($f1 * 65536) - ($f2 * 256) - $f3;
#X msg 116 557 color \$1 -1 -1;
#X obj 51 29 inlet;
#X obj 29 647 outlet;
#X obj 138 655 outlet;
#X connect 0 0 1 0;
#X connect 0 1 5 0;
#X connect 0 2 7 0;
#X connect 0 3 8 0;
#X connect 0 4 9 0;
#X connect 1 0 2 0;
#X connect 2 0 3 0;
#X connect 3 0 4 0;
#X connect 4 0 5 1;
#X connect 5 0 7 1;
#X connect 5 0 8 1;
#X connect 5 0 9 1;
#X connect 6 0 0 0;
#X connect 6 1 13 0;
#X connect 7 0 10 0;
#X connect 8 0 10 1;
#X connect 9 0 10 2;
#X connect 10 0 11 0;
#X connect 11 0 14 0;
#X connect 12 0 6 0;
#X restore 1455 100 pd logica_bateria;
#X f 7;
#X floatatom 1355 69 5 0 0 0 - - - 0;
#X obj 1353 153 vsl 53 162 0 127 0 0 empty empty Batería\ 4 0 180 0 12 #0000ff #000000 #000000 0 1;
#N canvas 350 371 1503 862 logica_bateria 0;
#X obj 59 108 t f f f f f;
#X obj 127 318 expr $f1 > 0 && $f1 < 15;
#X obj 126 346 metro 250;
#X obj 129 372 b;
#X obj 130 402 tgl 19 0 empty empty empty 0 -10 0 12 #fcfcfc #000000 #000000 0 1;
#X obj 309 183 expr if($f1 > 0 && $f1 < 15 \, $f2 \, 1);
#X obj 56 64 t f f;
#X obj 422 290 expr int(if($f1>100 \, 0 \, if($f1==0 \, 0 \, if($f1>50 \, (100-$f1)*5.1 \, 255))) * $f2);
#X obj 424 355 expr int(if($f1>100 \, 0 \, if($f1==0 \, 0 \, if($f1>50 \, 255 \, $f1*5.1))) * $f2);
#X obj 445 421 expr int(if($f1>100 \, 255 \, 0) * $f2);
#X obj 142 482 expr -1 - ($f1 * 65536) - ($f2 * 256) - $f3;
#X msg 116 557 color \$1 -1 -1;
#X obj 51 29 inlet;
#X obj 29 647 outlet;
#X obj 138 655 outlet;
#X connect 0 0 1 0;
#X connect 0 1 5 0;
#X connect 0 2 7 0;
#X connect 0 3 8 0;
#X connect 0 4 9 0;
#X connect 1 0 2 0;
#X connect 2 0 3 0;
#X connect 3 0 4 0;
#X connect 4 0 5 1;
#X connect 5 0 7 1;
#X connect 5 0 8 1;
#X connect 5 0 9 1;
#X connect 6 0 0 0;
#X connect 6 1 13 0;
#X connect 7 0 10 0;
#X connect 8 0 10 1;
#X connect 9 0 10 2;
#X connect 10 0 11 0;
#X connect 11 0 14 0;
#X connect 12 0 6 0;
#X restore 1355 97 pd logica_bateria;
#X f 7;
#X floatatom 1258 69 5 0 0 0 - - - 0;
#X obj 1258 154 vsl 53 162 0 127 0 0 empty empty Batería\ 3 0 180 0 12 #000000 #000000 #000000 0 1;
#N canvas 350 371 1503 862 logica_bateria 0;
#X obj 59 108 t f f f f f;
#X obj 127 318 expr $f1 > 0 && $f1 < 15;
#X obj 126 346 metro 250;
#X obj 129 372 b;
#X obj 130 402 tgl 19 0 empty empty empty 0 -10 0 12 #fcfcfc #000000 #000000 0 1;
#X obj 309 183 expr if($f1 > 0 && $f1 < 15 \, $f2 \, 1);
#X obj 56 64 t f f;
#X obj 422 290 expr int(if($f1>100 \, 0 \, if($f1==0 \, 0 \, if($f1>50 \, (100-$f1)*5.1 \, 255))) * $f2);
#X obj 424 355 expr int(if($f1>100 \, 0 \, if($f1==0 \, 0 \, if($f1>50 \, 255 \, $f1*5.1))) * $f2);
#X obj 445 421 expr int(if($f1>100 \, 255 \, 0) * $f2);
#X obj 142 482 expr -1 - ($f1 * 65536) - ($f2 * 256) - $f3;
#X msg 116 557 color \$1 -1 -1;
#X obj 51 29 inlet;
#X obj 29 647 outlet;
#X obj 138 655 outlet;
#X connect 0 0 1 0;
#X connect 0 1 5 0;
#X connect 0 2 7 0;
#X connect 0 3 8 0;
#X connect 0 4 9 0;
#X connect 1 0 2 0;
#X connect 2 0 3 0;
#X connect 3 0 4 0;
#X connect 4 0 5 1;
#X connect 5 0 7 1;
#X connect 5 0 8 1;
#X connect 5 0 9 1;
#X connect 6 0 0 0;
#X connect 6 1 13 0;
#X connect 7 0 10 0;
#X connect 8 0 10 1;
#X connect 9 0 10 2;
#X connect 10 0 11 0;
#X connect 11 0 14 0;
#X connect 12 0 6 0;
#X restore 1258 97 pd logica_bateria;
#X f 7;
#X floatatom 1157 67 5 0 0 0 - - - 0;
#X obj 1157 152 vsl 53 162 0 127 0 0 empty empty Batería\ 2 0 180 0 12 #00ff00 #000000 #000000 0 1;
#N canvas 350 371 1503 862 logica_bateria 0;
#X obj 59 108 t f f f f f;
#X obj 127 318 expr $f1 > 0 && $f1 < 15;
#X obj 126 346 metro 250;
#X obj 129 372 b;
#X obj 130 402 tgl 19 0 empty empty empty 0 -10 0 12 #fcfcfc #000000 #000000 0 1;
#X obj 309 183 expr if($f1 > 0 && $f1 < 15 \, $f2 \, 1);
#X obj 56 64 t f f;
#X obj 422 290 expr int(if($f1>100 \, 0 \, if($f1==0 \, 0 \, if($f1>50 \, (100-$f1)*5.1 \, 255))) * $f2);
#X obj 424 355 expr int(if($f1>100 \, 0 \, if($f1==0 \, 0 \, if($f1>50 \, 255 \, $f1*5.1))) * $f2);
#X obj 445 421 expr int(if($f1>100 \, 255 \, 0) * $f2);
#X obj 142 482 expr -1 - ($f1 * 65536) - ($f2 * 256) - $f3;
#X msg 116 557 color \$1 -1 -1;
#X obj 51 29 inlet;
#X obj 29 647 outlet;
#X obj 138 655 outlet;
#X connect 0 0 1 0;
#X connect 0 1 5 0;
#X connect 0 2 7 0;
#X connect 0 3 8 0;
#X connect 0 4 9 0;
#X connect 1 0 2 0;
#X connect 2 0 3 0;
#X connect 3 0 4 0;
#X connect 4 0 5 1;
#X connect 5 0 7 1;
#X connect 5 0 8 1;
#X connect 5 0 9 1;
#X connect 6 0 0 0;
#X connect 6 1 13 0;
#X connect 7 0 10 0;
#X connect 8 0 10 1;
#X connect 9 0 10 2;
#X connect 10 0 11 0;
#X connect 11 0 14 0;
#X connect 12 0 6 0;
#X restore 1157 95 pd logica_bateria;
#X f 7;
#X floatatom 1064 67 5 0 0 0 - - - 0;
#X obj 1064 152 vsl 53 162 0 127 0 0 empty empty Batería\ 1 0 180 0 12 #ff2d00 #000000 #000000 0 1;
#N canvas 350 371 1503 862 logica_bateria 0;
#X obj 59 108 t f f f f f;
#X obj 127 318 expr $f1 > 0 && $f1 < 15;
#X obj 126 346 metro 250;
#X obj 129 372 b;
#X obj 130 402 tgl 19 0 empty empty empty 0 -10 0 12 #fcfcfc #000000 #000000 0 1;
#X obj 309 183 expr if($f1 > 0 && $f1 < 15 \, $f2 \, 1);
#X obj 56 64 t f f;
#X obj 422 290 expr int(if($f1>100 \, 0 \, if($f1==0 \, 0 \, if($f1>50 \, (100-$f1)*5.1 \, 255))) * $f2);
#X obj 424 355 expr int(if($f1>100 \, 0 \, if($f1==0 \, 0 \, if($f1>50 \, 255 \, $f1*5.1))) * $f2);
#X obj 445 421 expr int(if($f1>100 \, 255 \, 0) * $f2);
#X obj 142 482 expr -1 - ($f1 * 65536) - ($f2 * 256) - $f3;
#X msg 116 557 color \$1 -1 -1;
#X obj 51 29 inlet;
#X obj 29 647 outlet;
#X obj 138 655 outlet;
#X connect 0 0 1 0;
#X connect 0 1 5 0;
#X connect 0 2 7 0;
#X connect 0 3 8 0;
#X connect 0 4 9 0;
#X connect 1 0 2 0;
#X connect 2 0 3 0;
#X connect 3 0 4 0;
#X connect 4 0 5 1;
#X connect 5 0 7 1;
#X connect 5 0 8 1;
#X connect 5 0 9 1;
#X connect 6 0 0 0;
#X connect 6 1 13 0;
#X connect 7 0 10 0;
#X connect 8 0 10 1;
#X connect 9 0 10 2;
#X connect 10 0 11 0;
#X connect 11 0 14 0;
#X connect 12 0 6 0;
#X restore 1064 95 pd logica_bateria;
#X f 7;
#X obj 122 24 netreceive -u 9999;
#X obj 153 69 route baqueta_c6_1 baqueta_c6_3;
#X obj 274 106 moses 101;
#X obj 270 140 bng 19 250 50 0 empty empty empty 0 -10 0 12 #fcfcfc #000000 #000000;
#X msg 304 140 1;
#X obj 352 144 f 0;
#X obj 268 175 spigot;
#X obj 269 203 t b b;
#X msg 338 181 0, f 2;
#X msg 319 208 62;
#X obj 305 266 makenote 62 127 100;
#X floatatom 604 168 5 0 0 0 - - - 0;
#X obj 574 206 print;
#X obj 177 296 noteout 17;
#X obj 308 300 noteout 17;
#X obj 898 210 ctlout 43 1;
#X obj 157 609 print;
#X obj 95 580 route sensor_c6_1;
#X floatatom 101 650 5 0 0 0 - - - 0;
#X obj 128 417 route sensor_c3_1;
#X obj 216 541 ctlout 33 17;
#X floatatom 210 503 5 0 0 0 - - - 0;
#X text 137 393 CORAZON;
#X text 102 561 PENDULO;
#X text 245 640 PAN;
#X text 191 707 CUTOFF;
#X obj 690 166 print;
#X floatatom 723 140 5 0 0 0 - - - 0;
#X obj 611 74 route sensor_c6_2 sensor_c6_4 sensor_c6_5;
#X obj 775 161 print;
#X floatatom 836 113 5 0 0 0 - - - 0;
#X obj 217 474 min 110;
#X obj 75 682 min 110;
#X floatatom 152 517 5 0 0 0 - - - 0;
#X obj 615 255 ctlout 44 17;
#X text 896 227 cutoff sinte;
#X obj 754 314 ctlout 42 17;
#X obj 909 286 ctlout 45 17;
#X text 612 272 base bajo 2;
#X text 752 331 base agudo 4;
#X text 903 303 super agudo 5;
#X obj 170 448 print;
#X obj 162 650 ctlout 31 17;
#X obj 99 712 ctlout 41 17;
#X obj 151 476 max 40;
#X obj 102 619 max 60;
#X obj 533 554 ctlout 46 17;
#X floatatom 470 533 5 0 0 0 - - - 0;
#X obj 759 205 * 2;
#X obj 768 248 min 127;
#X text 531 571 comment;
#X floatatom 369 629 5 0 0 0 - - - 0;
#X text 430 667 comment;
#X obj 335 588 route sensor_c6_1;
#X obj 432 650 ctlout 47 17;
#X obj 436 492 route sensor_c6_3;
#X text 741 453 MIDI SINTE: MINILOGUE SOUND;
#X connect 0 0 9 0;
#X connect 2 0 4 0;
#X connect 2 2 3 0;
#X connect 3 0 4 1;
#X connect 4 0 5 0;
#X connect 4 0 6 0;
#X connect 5 0 4 1;
#X connect 6 0 7 0;
#X connect 7 0 8 0;
#X connect 8 0 12 0;
#X connect 8 0 39 0;
#X connect 9 0 10 0;
#X connect 10 0 11 0;
#X connect 11 0 12 1;
#X connect 12 0 13 0;
#X connect 13 0 15 0;
#X connect 13 1 14 0;
#X connect 14 0 11 0;
#X connect 15 0 16 0;
#X connect 16 0 46 0;
#X connect 16 1 46 1;
#X connect 17 0 20 0;
#X connect 18 0 30 0;
#X connect 18 1 27 0;
#X connect 18 2 24 0;
#X connect 18 3 21 0;
#X connect 18 4 17 0;
#X connect 20 0 19 0;
#X connect 20 1 19 0;
#X connect 21 0 23 0;
#X connect 23 0 22 0;
#X connect 23 1 22 0;
#X connect 24 0 26 0;
#X connect 26 0 25 0;
#X connect 26 1 25 0;
#X connect 27 0 29 0;
#X connect 29 0 28 0;
#X connect 29 1 28 0;
#X connect 30 0 32 0;
#X connect 32 0 31 0;
#X connect 32 1 31 0;
#X connect 33 0 34 0;
#X connect 33 0 18 0;
#X connect 33 0 52 0;
#X connect 33 0 61 0;
#X connect 34 0 0 0;
#X connect 34 1 35 0;
#X connect 35 0 36 0;
#X connect 36 0 37 0;
#X connect 37 0 38 0;
#X connect 38 0 39 1;
#X connect 39 0 40 0;
#X connect 40 0 42 0;
#X connect 40 1 41 0;
#X connect 41 0 38 0;
#X connect 42 0 43 0;
#X connect 43 0 47 0;
#X connect 43 1 47 1;
#X connect 50 0 49 0;
#X connect 50 0 78 0;
#X connect 51 0 65 0;
#X connect 52 0 66 0;
#X connect 52 0 74 0;
#X connect 52 0 77 0;
#X connect 54 0 53 0;
#X connect 61 0 44 0;
#X connect 61 0 45 0;
#X connect 61 0 67 0;
#X connect 61 1 60 0;
#X connect 61 1 59 0;
#X connect 61 1 81 0;
#X connect 61 1 48 0;
#X connect 61 2 63 0;
#X connect 61 2 70 0;
#X connect 64 0 54 0;
#X connect 65 0 76 0;
#X connect 77 0 64 0;
#X connect 78 0 51 0;
#X connect 78 0 75 0;
#X connect 80 0 79 0;
#X connect 81 0 82 0;
#X connect 82 0 69 0;
#X connect 84 0 87 0;
#X connect 86 0 84 0;
#X connect 88 0 80 0;
