#N canvas 4 82 1920 811 12;
#X declare -lib Gem;
#X obj 480 22 netreceive -u 9999;
#X obj 39 47 declare -lib Gem;
#X msg 51 119 create \, 1;
#X obj 50 161 gemwin;
#X obj 405 141 gemhead;
#X obj 483 87 unpack f f f f;
#X obj 407 179 rotate;
#X obj 543 167 pack f f f;
#X obj 407 221 teapot;
#X obj 40 211 bang;
#X obj 33 321 netsend -u;
#X obj 727 110 print LA_IP_ES;
#X msg 44 246 send reset;
#X obj 192 389 pack f f;
#X obj 192 420 expr ($f1 * $f2 + 90) / 180 * 127;
#X obj 192 455 clip 0 127;
#X obj 191 483 int;
#X obj 188 558 ctlout 16 1;
#X obj 469 387 pack f f;
#X obj 469 453 clip 0 127;
#X obj 468 481 int;
#X obj 469 418 expr ($f1 * $f2 + 90) / 180 * 127;
#X obj 464 529 ctlout 17 1;
#X floatatom 220 519 5 0 0 0 - - - 0;
#X floatatom 498 503 5 0 0 0 - - - 0;
#X obj 719 392 pack f f;
#X obj 719 458 clip 0 127;
#X obj 718 486 int;
#X floatatom 748 508 5 0 0 0 - - - 0;
#X obj 719 423 expr ($f1 * $f2 + 90) / 180 * 127;
#X text 229 594 X;
#X text 508 575 Y;
#X text 754 573 Z;
#X msg 64 280 connect 192.168.1.110 9999;
#X obj 1284 54 netreceive -u 9999;
#X obj 1209 173 gemhead;
#X obj 1287 119 unpack f f f f;
#X obj 1211 211 rotate;
#X obj 1347 199 pack f f f;
#X obj 1469 110 print LA_IP_ES;
#X obj 996 421 pack f f;
#X obj 996 452 expr ($f1 * $f2 + 90) / 180 * 127;
#X obj 996 487 clip 0 127;
#X obj 995 515 int;
#X obj 1273 419 pack f f;
#X obj 1273 485 clip 0 127;
#X obj 1272 513 int;
#X obj 1273 450 expr ($f1 * $f2 + 90) / 180 * 127;
#X floatatom 1024 551 5 0 0 0 - - - 0;
#X floatatom 1302 535 5 0 0 0 - - - 0;
#X obj 1523 424 pack f f;
#X obj 1523 490 clip 0 127;
#X obj 1522 518 int;
#X floatatom 1552 540 5 0 0 0 - - - 0;
#X obj 1523 455 expr ($f1 * $f2 + 90) / 180 * 127;
#X text 1033 626 X;
#X text 1312 607 Y;
#X text 1558 605 Z;
#X obj 714 534 ctlout 18 1;
#X obj 992 590 ctlout 13 1;
#X obj 1268 561 ctlout 14 1;
#X obj 1518 566 ctlout 15 1;
#X obj 1286 82 route axis_c3_4 ip_info;
#X obj 1211 253 cube;
#X obj 482 50 route axis_c3_3 axis_c3_4 ip_info;
#X obj 891 143 bang;
#X obj 884 253 netsend -u;
#X msg 895 178 send reset;
#X msg 915 212 connect 192.168.1.110 9999;
#X connect 0 0 64 0;
#X connect 2 0 3 0;
#X connect 4 0 6 0;
#X connect 5 0 6 1;
#X connect 5 0 13 0;
#X connect 5 0 18 0;
#X connect 5 0 25 0;
#X connect 5 1 7 2;
#X connect 5 1 13 1;
#X connect 5 2 7 0;
#X connect 5 2 18 1;
#X connect 5 3 7 1;
#X connect 5 3 25 1;
#X connect 6 0 8 0;
#X connect 7 0 6 2;
#X connect 9 0 12 0;
#X connect 12 0 10 0;
#X connect 13 0 14 0;
#X connect 14 0 15 0;
#X connect 15 0 16 0;
#X connect 16 0 17 0;
#X connect 16 0 23 0;
#X connect 18 0 21 0;
#X connect 19 0 20 0;
#X connect 20 0 22 0;
#X connect 20 0 24 0;
#X connect 21 0 19 0;
#X connect 25 0 29 0;
#X connect 26 0 27 0;
#X connect 27 0 28 0;
#X connect 27 0 58 0;
#X connect 29 0 26 0;
#X connect 33 0 10 0;
#X connect 34 0 62 0;
#X connect 35 0 37 0;
#X connect 36 0 37 1;
#X connect 36 0 40 0;
#X connect 36 0 44 0;
#X connect 36 0 50 0;
#X connect 36 1 38 2;
#X connect 36 1 40 1;
#X connect 36 2 38 0;
#X connect 36 2 44 1;
#X connect 36 3 38 1;
#X connect 36 3 50 1;
#X connect 37 0 63 0;
#X connect 38 0 37 2;
#X connect 40 0 41 0;
#X connect 41 0 42 0;
#X connect 42 0 43 0;
#X connect 43 0 48 0;
#X connect 43 0 59 0;
#X connect 44 0 47 0;
#X connect 45 0 46 0;
#X connect 46 0 49 0;
#X connect 46 0 60 0;
#X connect 47 0 45 0;
#X connect 50 0 54 0;
#X connect 51 0 52 0;
#X connect 52 0 53 0;
#X connect 52 0 61 0;
#X connect 54 0 51 0;
#X connect 62 1 39 0;
#X connect 64 0 5 0;
#X connect 64 1 36 0;
#X connect 65 0 67 0;
#X connect 67 0 66 0;
#X connect 68 0 66 0;
